<svg xmlns="http://www.w3.org/2000/svg" xmlns:xlink="http://www.w3.org/1999/xlink" width="116.071" height="169.059" viewBox="0 0 116.071 169.059">
  <defs>
    <clipPath id="clip-path">
      <rect id="Rectangle_13570" data-name="Rectangle 13570" width="116.071" height="169.059" fill="none" stroke="#c7a386" stroke-width="2"/>
    </clipPath>
  </defs>
  <g id="vision" transform="translate(0 0)">
    <g id="Group_71275" data-name="Group 71275" transform="translate(0 0)" clip-path="url(#clip-path)">
      <path id="Path_97732" data-name="Path 97732" d="M110.5,314.043s8.042-11.431,16.516-16.516c9.176-5.505,22.021-25.692,34.867-27.527" transform="translate(-59.805 -146.13)" fill="none" stroke="#c7a386" stroke-linecap="round" stroke-linejoin="round" stroke-width="2"/>
      <path id="Path_97733" data-name="Path 97733" d="M43.346,270a63.4,63.4,0,0,0-.526,15.459,5.487,5.487,0,0,1-1.6,4.675,23.5,23.5,0,0,0-7.05,20.238l-3.67,3.67" transform="translate(-16.507 -146.13)" fill="none" stroke="#c7a386" stroke-linecap="round" stroke-linejoin="round" stroke-width="2"/>
      <path id="Path_97734" data-name="Path 97734" d="M82.5,270l1.4,5.587a14.671,14.671,0,0,1,.439,3.561v7.368a5.505,5.505,0,0,0,5.505,5.505h1.835S95.346,270,102.686,270" transform="translate(-44.651 -146.13)" fill="none" stroke="#c7a386" stroke-linecap="round" stroke-linejoin="round" stroke-width="2"/>
      <path id="Path_97735" data-name="Path 97735" d="M83.821,318S71.1,320.827,67.987,332.68" transform="translate(-36.796 -172.109)" fill="none" stroke="#c7a386" stroke-linecap="round" stroke-linejoin="round" stroke-width="2"/>
      <path id="Path_97736" data-name="Path 97736" d="M136.005,270s-5.505,9.176-5.505,16.516L152.521,270" transform="translate(-70.629 -146.13)" fill="none" stroke="#c7a386" stroke-linecap="round" stroke-linejoin="round" stroke-width="2"/>
      <path id="Path_97737" data-name="Path 97737" d="M105.266,257.011H13.511A11.011,11.011,0,0,1,2.5,246H116.277A11.011,11.011,0,0,1,105.266,257.011Z" transform="translate(-1.353 -133.141)" fill="none" stroke="#c7a386" stroke-linecap="round" stroke-linejoin="round" stroke-width="2"/>
      <path id="Path_97738" data-name="Path 97738" d="M129.593,86.686,129.823,2.5H119.729L119.5,57.783" transform="translate(-64.676 -1.353)" fill="none" stroke="#c7a386" stroke-linecap="round" stroke-linejoin="round" stroke-width="2"/>
      <path id="Path_97739" data-name="Path 97739" d="M110.529,2.5l-7.8,6.882L102.5,54.112" transform="translate(-55.475 -1.353)" fill="none" stroke="#c7a386" stroke-linecap="round" stroke-linejoin="round" stroke-width="2"/>
      <path id="Path_97740" data-name="Path 97740" d="M204.6,144.109v-3.226h3.226" transform="translate(-110.732 -76.249)" fill="none" stroke="#c7a386" stroke-linecap="round" stroke-linejoin="round" stroke-width="2"/>
      <path id="Path_97741" data-name="Path 97741" d="M183.5,120.668v-3.226h3.226" transform="translate(-99.314 -63.562)" fill="none" stroke="#c7a386" stroke-linecap="round" stroke-linejoin="round" stroke-width="2"/>
      <path id="Path_97742" data-name="Path 97742" d="M204.6,120.668v-3.226h3.226" transform="translate(-110.732 -63.562)" fill="none" stroke="#c7a386" stroke-linecap="round" stroke-linejoin="round" stroke-width="2"/>
      <path id="Path_97743" data-name="Path 97743" d="M183.5,97.226V94h3.226" transform="translate(-99.314 -50.875)" fill="none" stroke="#c7a386" stroke-linecap="round" stroke-linejoin="round" stroke-width="2"/>
      <path id="Path_97744" data-name="Path 97744" d="M204.6,97.226V94h3.226" transform="translate(-110.732 -50.875)" fill="none" stroke="#c7a386" stroke-linecap="round" stroke-linejoin="round" stroke-width="2"/>
      <path id="Path_97745" data-name="Path 97745" d="M203.688,167.047V163.82h3.226" transform="translate(-110.24 -88.663)" fill="none" stroke="#c7a386" stroke-linecap="round" stroke-linejoin="round" stroke-width="2"/>
      <path id="Path_97746" data-name="Path 97746" d="M10,172.512A11.011,11.011,0,1,0,21.011,161.5,11.013,11.013,0,0,0,10,172.512Z" transform="translate(-5.412 -87.407)" fill="none" stroke="#c7a386" stroke-linecap="round" stroke-linejoin="round" stroke-width="2"/>
      <path id="Path_97747" data-name="Path 97747" d="M29.67,214.464V193.349a3.671,3.671,0,0,0-1.074-2.594l-2.6-2.6" transform="translate(-14.072 -101.834)" fill="none" stroke="#c7a386" stroke-linecap="round" stroke-linejoin="round" stroke-width="2"/>
      <path id="Path_97748" data-name="Path 97748" d="M202.089,226.644a4.627,4.627,0,0,1-4.566-3.372,4.494,4.494,0,0,1,4.352-5.6,6.729,6.729,0,0,1,13.457,0,4.493,4.493,0,0,1,4.352,5.6,4.627,4.627,0,0,1-4.566,3.372" transform="translate(-106.831 -114.168)" fill="none" stroke="#c7a386" stroke-linecap="round" stroke-linejoin="round" stroke-width="2"/>
      <path id="Path_97749" data-name="Path 97749" d="M96.686,167.924V129.846L76.5,117" transform="translate(-41.403 -63.323)" fill="none" stroke="#c7a386" stroke-linecap="round" stroke-linejoin="round" stroke-width="2"/>
      <path id="Path_97750" data-name="Path 97750" d="M28.5,99.351,50.521,81v48.63" transform="translate(-15.425 -43.839)" fill="none" stroke="#c7a386" stroke-linecap="round" stroke-linejoin="round" stroke-width="2"/>
      <line id="Line_516" data-name="Line 516" y2="3.812" transform="translate(59.941 11.156)" fill="none" stroke="#c7a386" stroke-linecap="round" stroke-linejoin="round" stroke-width="2"/>
      <line id="Line_517" data-name="Line 517" y2="2.541" transform="translate(59.941 21.32)" fill="none" stroke="#c7a386" stroke-linecap="round" stroke-linejoin="round" stroke-width="2"/>
      <path id="Path_97751" data-name="Path 97751" d="M159.5,143.193V73h31.2v51.383" transform="translate(-86.325 -39.509)" fill="none" stroke="#c7a386" stroke-linecap="round" stroke-linejoin="round" stroke-width="2"/>
      <line id="Line_518" data-name="Line 518" y2="27.297" transform="translate(84.644 66.293)" fill="none" stroke="#c7a386" stroke-linecap="round" stroke-linejoin="round" stroke-width="2"/>
    </g>
  </g>
<!-- Code injected by live-server -->
<script>
	// <![CDATA[  <-- For SVG support
	if ('WebSocket' in window) {
		(function () {
			function refreshCSS() {
				var sheets = [].slice.call(document.getElementsByTagName("link"));
				var head = document.getElementsByTagName("head")[0];
				for (var i = 0; i < sheets.length; ++i) {
					var elem = sheets[i];
					var parent = elem.parentElement || head;
					parent.removeChild(elem);
					var rel = elem.rel;
					if (elem.href && typeof rel != "string" || rel.length == 0 || rel.toLowerCase() == "stylesheet") {
						var url = elem.href.replace(/(&|\?)_cacheOverride=\d+/, '');
						elem.href = url + (url.indexOf('?') >= 0 ? '&' : '?') + '_cacheOverride=' + (new Date().valueOf());
					}
					parent.appendChild(elem);
				}
			}
			var protocol = window.location.protocol === 'http:' ? 'ws://' : 'wss://';
			var address = protocol + window.location.host + window.location.pathname + '/ws';
			var socket = new WebSocket(address);
			socket.onmessage = function (msg) {
				if (msg.data == 'reload') window.location.reload();
				else if (msg.data == 'refreshcss') refreshCSS();
			};
			if (sessionStorage && !sessionStorage.getItem('IsThisFirstTime_Log_From_LiveServer')) {
				console.log('Live reload enabled.');
				sessionStorage.setItem('IsThisFirstTime_Log_From_LiveServer', true);
			}
		})();
	}
	else {
		console.error('Upgrade your browser. This Browser is NOT supported WebSocket for Live-Reloading.');
	}
	// ]]>
</script>
</svg>
